<mxfile host="app.diagrams.net">
  <diagram name="Управление логистикой интернет-магазина">
    <mxGraphModel dx="1000" dy="1000" grid="1" gridSize="10" guides="1" tooltips="1" connect="1" arrows="1" fold="1">
      <root>
        <mxCell id="0" />
        <mxCell id="1" parent="0" />
        <mxCell id="start" value="Начало" style="ellipse;whiteSpace=wrap;html=1;fillColor=#A4A4A4;" vertex="1" parent="1">
          <mxGeometry x="50" y="50" width="50" height="50" as="geometry" />
        </mxCell>
        <mxCell id="create_order" value="Клиент создает заказ" style="rounded=1;whiteSpace=wrap;html=1;" vertex="1" parent="1">
          <mxGeometry x="150" y="50" width="180" height="50" as="geometry" />
        </mxCell>
        <mxCell id="check_stock" value="Система проверяет наличие товаров" style="rhombus;whiteSpace=wrap;html=1;" vertex="1" parent="1">
          <mxGeometry x="150" y="120" width="120" height="70" as="geometry" />
        </mxCell>
        <mxCell id="choose_payment" value="Клиент выбирает способ оплаты" style="rounded=1;whiteSpace=wrap;html=1;" vertex="1" parent="1">
          <mxGeometry x="150" y="240" width="200" height="50" as="geometry" />
        </mxCell>
        <mxCell id="online_payment" value="Онлайн оплата" style="rounded=1;whiteSpace=wrap;html=1;" vertex="1" parent="1">
          <mxGeometry x="400" y="240" width="150" height="50" as="geometry" />
        </mxCell>
        <mxCell id="assemble_order" value="Склад собирает заказ" style="rounded=1;whiteSpace=wrap;html=1;" vertex="1" parent="1">
          <mxGeometry x="150" y="320" width="180" height="50" as="geometry" />
        </mxCell>
        <mxCell id="send_to_delivery" value="Отправка в курьерскую службу" style="rounded=1;whiteSpace=wrap;html=1;" vertex="1" parent="1">
          <mxGeometry x="150" y="400" width="200" height="50" as="geometry" />
        </mxCell>
        <mxCell id="end" value="Конец" style="ellipse;whiteSpace=wrap;html=1;fillColor=#A4A4A4;" vertex="1" parent="1">
          <mxGeometry x="150" y="500" width="50" height="50" as="geometry" />
        </mxCell>
        <mxCell id="edge1" style="edgeStyle=orthogonalEdgeStyle;" edge="1" parent="1" source="start" target="create_order">
          <mxGeometry relative="1" as="geometry" />
        </mxCell>
      </root>
    </mxGraphModel>
  </diagram>
</mxfile>
